<svg width="30" height="30" viewBox="0 0 30 30" fill="none" xmlns="http://www.w3.org/2000/svg">
<path d="M29.9399 13.7999C30.6599 23.0399 23.0399 30.6599 13.7999 29.9399C6.53987 29.3999 0.599869 23.4599 0.0598691 16.1999C-0.660131 6.95987 6.95987 -0.660131 16.1999 0.0598691C23.4599 0.599869 29.3999 6.53987 29.9399 13.7999Z" fill="#2BB696"/>
<path d="M10.5599 10.7399L5.39992 16.0199C4.25992 17.1599 4.25992 19.0799 5.39992 20.2799C6.53992 21.4199 8.39992 21.4199 9.53992 20.2799L18.7799 10.7399C16.5599 8.39986 12.8399 8.39986 10.5599 10.7399ZM24.5399 10.3199C23.3999 9.17986 21.5399 9.17986 20.3999 10.3199L11.2199 19.8599C13.4999 22.1999 17.1599 22.1999 19.4399 19.8599L24.5999 14.5799C25.6799 13.3799 25.6799 11.5199 24.5399 10.3199Z" fill="white"/>
</svg>
